<svg width="16" height="19" viewBox="0 0 16 19" fill="none" xmlns="http://www.w3.org/2000/svg">
<path id="Vector" d="M12.6371 17.3279C11.6571 18.2779 10.5871 18.1279 9.55708 17.6779C8.46708 17.2179 7.46708 17.1979 6.31708 17.6779C4.87708 18.2979 4.11708 18.1179 3.25708 17.3279C-1.62292 12.2979 -0.902922 4.63785 4.63708 4.35785C5.98708 4.42785 6.92708 5.09785 7.71708 5.15785C8.89708 4.91785 10.0271 4.22785 11.2871 4.31785C12.7971 4.43785 13.9371 5.03785 14.6871 6.11785C11.5671 7.98785 12.3071 12.0979 15.1671 13.2479C14.5971 14.7479 13.8571 16.2379 12.6271 17.3379L12.6371 17.3279ZM7.61708 4.29785C7.46708 2.06785 9.27708 0.227852 11.3571 0.0478516C11.6471 2.62785 9.01708 4.54785 7.61708 4.29785Z" fill="white"/>
</svg>
